# xmcd CD database file
#
# Track frame offsets:
#	150
#	23382
#	45430
#	68607
#	87880
#	104980
#	116155
#	137080
#	157180
#	176077
#
# Disc length: 2579 seconds
#
# Revision: 1
# Processed by: cddbd v1.5.2PL0 Copyright (c) Steve Scherf et al.
# Submitted via: CDex 1.70beta2
#
DISCID=840a110a
DTITLE=No Credit - Interrelated
DYEAR=1995
DGENRE=Hard Rock
TTITLE0=Miss You Now
TTITLE1=Live Out My Life
TTITLE2=Mrs. Lonely
TTITLE3=No More Fight
TTITLE4=Dance The Night Away
TTITLE5=When The Sun Begins To Shine
TTITLE6=Stay Tonight
TTITLE7=Vibration
TTITLE8=Sally
TTITLE9=Let'S Go
EXTD=YEAR: 1995
EXTT0=
EXTT1=
EXTT2=
EXTT3=
EXTT4=
EXTT5=
EXTT6=
EXTT7=
EXTT8=
EXTT9=
PLAYORDER=
